<svg xmlns="http://www.w3.org/2000/svg" width="138" height="60"><path d="M 106.615 1.814 L 110.078 12.041 L 120.162 16.131 L 111.405 22.551 L 110.59 33.307 L 101.715 27.048 L 91.127 29.605 L 94.399 19.317 L 88.671 10.141 L 99.568 10.042 L 106.615 1.814 Z M 128.203 14.683 L 129.915 17.69 L 133.334 18.373 L 130.973 20.913 L 131.374 24.342 L 128.203 22.906 L 125.032 24.342 L 125.432 20.913 L 123.072 18.373 L 126.49 17.69 Z M 80.998 0 L 83.138 3.758 L 87.411 4.612 L 84.461 7.788 L 84.962 12.074 L 80.998 10.278 L 77.034 12.074 L 77.535 7.788 L 74.585 4.612 L 78.858 3.758 Z M 82.347 24.027 L 83.631 26.282 L 86.195 26.794 L 84.425 28.699 L 84.725 31.271 L 82.347 30.194 L 79.968 31.271 L 80.269 28.7 L 78.499 26.794 L 81.062 26.282 Z" fill="rgb(233,168,203)"></path><path d="M 33.119 46.719 L 35.474 50.853 L 40.174 51.792 L 36.928 55.286 L 37.479 60 L 33.119 58.025 L 28.759 60 L 29.309 55.286 L 26.064 51.792 L 30.764 50.853 Z M 16.023 46.249 L 10.002 46.249 L 10.002 57.686 L 0 57.686 L 0 26.595 C 0 21.069 1.748 19.003 7.574 19.003 L 16.023 19.003 C 24.422 19.003 30.589 23.135 30.589 32.217 L 30.589 33.034 C 30.589 42.116 24.422 46.249 16.023 46.249 Z M 10.002 28.758 L 10.002 37.888 L 15.537 37.888 C 18.79 37.888 20.635 35.485 20.635 32.794 L 20.635 32.458 C 20.635 29.767 18.79 27.364 15.537 27.364 L 11.41 27.364 C 10.294 27.364 10.002 27.604 10.002 28.758 Z M 57.951 57.686 L 47.852 57.686 L 47.852 27.508 L 40.424 27.508 C 37.608 27.508 36.491 25.202 36.491 23.231 C 36.491 21.261 37.559 19.099 40.424 19.099 L 65.38 19.099 C 68.244 19.099 69.313 21.261 69.313 23.231 C 69.313 25.201 68.196 27.508 65.38 27.508 L 57.951 27.508 Z M 74.336 58.892 L 68.86 58.892 L 68.86 44.877 C 68.86 43.115 70.155 42.207 71.584 42.207 C 72.636 42.207 73.634 42.715 74.065 43.675 C 75.091 42.715 76.412 42.208 77.842 42.208 C 79.488 42.208 81.079 42.741 82.212 44.076 C 83.318 42.928 84.882 42.208 87.067 42.208 C 90.493 42.208 93.487 43.943 93.487 49.522 L 93.487 58.892 L 87.93 58.892 L 87.93 49.202 C 87.93 47.386 86.771 46.772 85.88 46.772 C 84.99 46.772 83.803 47.386 83.803 49.202 L 83.803 58.892 L 78.462 58.892 L 78.462 49.202 C 78.462 47.386 77.302 46.772 76.412 46.772 C 75.549 46.772 74.389 47.36 74.336 49.068 Z M 96.232 58.892 L 96.232 45.064 C 96.232 43.222 97.5 42.394 99.01 42.394 C 100.521 42.394 101.789 43.222 101.789 45.064 L 101.789 58.892 Z M 96.205 38.79 C 96.205 37.028 97.5 36.334 99.01 36.334 C 100.521 36.334 101.816 37.028 101.816 38.79 C 101.816 40.552 100.521 41.246 99.01 41.246 C 97.5 41.246 96.205 40.552 96.205 38.79 Z M 110.108 58.892 L 104.632 58.892 L 104.632 44.877 C 104.632 43.115 105.927 42.207 107.356 42.207 C 108.408 42.207 109.406 42.715 109.865 43.675 C 110.917 42.715 112.373 42.208 113.803 42.208 C 117.229 42.208 119.953 43.889 119.953 49.522 L 119.953 58.892 L 114.397 58.892 L 114.397 49.202 C 114.397 47.386 113.183 46.772 112.266 46.772 C 111.349 46.772 110.108 47.386 110.108 49.202 Z M 138 58.892 L 133.711 58.892 L 133.415 57.157 C 132.389 58.519 130.825 59.346 128.883 59.346 C 125.322 59.346 122.301 57.611 122.301 51.978 L 122.301 49.575 C 122.301 43.943 125.322 42.208 128.883 42.208 C 130.366 42.208 131.58 42.688 132.524 43.462 L 132.524 39.004 C 132.524 37.242 133.846 36.334 135.276 36.334 C 136.705 36.334 138 37.242 138 39.004 Z M 127.858 49.202 L 127.858 52.352 C 127.858 54.167 129.234 54.781 130.177 54.781 C 131.095 54.781 132.443 54.194 132.524 52.486 L 132.524 49.068 C 132.443 47.36 131.095 46.772 130.177 46.772 C 129.234 46.772 127.858 47.386 127.858 49.202 Z" fill="rgb(61, 46, 128)"></path></svg>