<svg width="303" height="133" viewBox="0 0 303 133" fill="none" xmlns="http://www.w3.org/2000/svg">
<path d="M234.089 4.02122L241.693 26.6903L263.833 35.757L244.606 49.9881L242.818 73.8298L223.33 59.9559L200.084 65.6242L207.268 42.8186L194.69 22.4801L218.617 22.2593L234.089 4.02122Z" fill="#E9A8CB"/>
<path d="M281.489 32.5476L285.248 39.2125L292.754 40.7257L287.572 46.358L288.451 53.9582L281.489 50.7742L274.526 53.9582L275.405 46.358L270.223 40.7257L277.729 39.2125L281.489 32.5476Z" fill="#E9A8CB"/>
<path d="M177.843 0L182.543 8.33115L191.925 10.2226L185.447 17.2631L186.546 26.7632L177.843 22.7833L169.14 26.7632L170.239 17.2631L163.762 10.2226L173.144 8.33115L177.843 0Z" fill="#E9A8CB"/>
<path d="M180.805 53.2597L183.624 58.2584L189.254 59.3932L185.367 63.6175L186.026 69.3176L180.805 66.9296L175.583 69.3176L176.242 63.6175L172.356 59.3932L177.985 58.2584L180.805 53.2597Z" fill="#E9A8CB"/>
<path d="M72.7175 103.56L77.8871 112.725L88.2074 114.805L81.0821 122.55L82.2908 133L72.7175 128.622L63.1442 133L64.3529 122.55L57.2275 114.805L67.5479 112.725L72.7175 103.56Z" fill="#6D5FAA"/>
<path d="M35.1801 102.519H21.9609V127.871H0V58.9525C0 46.7028 3.83783 42.1225 16.6306 42.1225H35.1801C53.6231 42.1225 67.1621 51.2831 67.1621 71.4153V73.2261C67.1621 93.3583 53.6231 102.519 35.1801 102.519ZM21.9609 63.7459V83.9846H34.1141C41.2567 83.9846 45.3078 78.6586 45.3078 72.6935V71.9479C45.3078 65.9828 41.2567 60.6568 34.1141 60.6568H25.0525C22.6006 60.6568 21.9609 61.1894 21.9609 63.7459Z" fill="#6D5FAA"/>
<path d="M127.241 127.871H105.067V60.9764H88.7558C82.5727 60.9764 80.1207 55.8635 80.1207 51.4962C80.1207 47.1289 82.466 42.3355 88.7558 42.3355H143.552C149.841 42.3355 152.187 47.1289 152.187 51.4962C152.187 55.8635 149.735 60.9764 143.552 60.9764H127.241V127.871Z" fill="#6D5FAA"/>
<path d="M163.215 130.545H151.192V99.4772C151.192 95.5715 154.035 93.5595 157.174 93.5595C159.483 93.5595 161.675 94.6838 162.622 96.8142C164.873 94.6838 167.775 93.5595 170.914 93.5595C174.527 93.5595 178.021 94.743 180.508 97.7019C182.937 95.1573 186.372 93.5595 191.169 93.5595C198.691 93.5595 205.265 97.406 205.265 109.774V130.545H193.064V109.064C193.064 105.04 190.518 103.679 188.563 103.679C186.609 103.679 184.003 105.04 184.003 109.064V130.545H172.276V109.064C172.276 105.04 169.729 103.679 167.775 103.679C165.88 103.679 163.333 104.981 163.215 108.768V130.545Z" fill="#6D5FAA"/>
<path d="M211.292 130.545V99.8914C211.292 95.8082 214.076 93.9737 217.392 93.9737C220.709 93.9737 223.493 95.8082 223.493 99.8914V130.545H211.292ZM211.233 85.9848C211.233 82.079 214.076 80.5404 217.392 80.5404C220.709 80.5404 223.552 82.079 223.552 85.9848C223.552 89.8905 220.709 91.4291 217.392 91.4291C214.076 91.4291 211.233 89.8905 211.233 85.9848Z" fill="#6D5FAA"/>
<path d="M241.758 130.545H229.735V99.4772C229.735 95.5715 232.578 93.5595 235.717 93.5595C238.027 93.5595 240.218 94.6838 241.225 96.8142C243.535 94.6838 246.733 93.5595 249.872 93.5595C257.394 93.5595 263.376 97.2876 263.376 109.774V130.545H251.175V109.064C251.175 105.04 248.51 103.679 246.496 103.679C244.483 103.679 241.758 105.04 241.758 109.064V130.545Z" fill="#6D5FAA"/>
<path d="M303 130.545H293.583L292.932 126.699C290.681 129.717 287.246 131.551 282.982 131.551C275.164 131.551 268.531 127.705 268.531 115.218V109.892C268.531 97.406 275.164 93.5595 282.982 93.5595C286.239 93.5595 288.904 94.6247 290.977 96.3408V86.4582C290.977 82.5525 293.879 80.5404 297.018 80.5404C300.157 80.5404 303 82.5525 303 86.4582V130.545ZM280.731 109.064V116.047C280.731 120.071 283.752 121.432 285.824 121.432C287.838 121.432 290.799 120.13 290.977 116.343V108.768C290.799 104.981 287.838 103.679 285.824 103.679C283.752 103.679 280.731 105.04 280.731 109.064Z" fill="#6D5FAA"/>
</svg>
